<svg width="83" height="82" viewBox="0 0 83 82" fill="none" xmlns="http://www.w3.org/2000/svg">
<path d="M67.9475 21.0897C67.934 20.8684 67.8399 20.6597 67.6829 20.5031C67.5259 20.3466 67.3169 20.253 67.0956 20.2401C55.7108 19.5604 46.6053 22.9815 42.7356 29.3683C40.0984 33.7228 40.2049 38.8658 43.0165 43.9159C41.0323 46.0955 39.7221 48.8033 39.2443 51.7119L33.9223 46.3899C35.8776 42.7649 35.9183 39.0651 34.0175 35.925C31.2036 31.2782 24.6106 28.7951 16.3751 29.2777C16.1549 29.2916 15.9473 29.3853 15.7914 29.5413C15.6354 29.6973 15.5416 29.9048 15.5277 30.125C15.0451 38.356 17.5283 44.949 22.1751 47.7629C23.6664 48.6784 25.3823 49.1631 27.1322 49.163C29.0639 49.1302 30.9569 48.6163 32.64 47.6677L39.0313 54.0659V60.9375C39.0313 61.1778 39.1268 61.4084 39.2967 61.5783C39.4667 61.7483 39.6972 61.8437 39.9376 61.8437C40.1779 61.8437 40.4084 61.7483 40.5784 61.5783C40.7483 61.4084 40.8438 61.1778 40.8438 60.9375V54.2562C40.8353 50.9104 42.0698 47.6807 44.3079 45.1937C46.9112 46.6346 49.5347 47.3596 52.0654 47.3596C54.4494 47.36 56.787 46.7006 58.8193 45.4542C65.2038 41.5823 68.6181 32.4767 67.9475 21.0897ZM23.113 46.2109C19.2003 43.8456 17.0547 38.211 17.2994 31.0494C24.4611 30.8047 30.0957 32.9502 32.461 36.863C33.9291 39.2894 33.954 42.1577 32.5652 45.0396L26.0765 38.5463C25.9041 38.3901 25.6782 38.3062 25.4457 38.3119C25.2131 38.3176 24.9916 38.4126 24.8271 38.5771C24.6627 38.7416 24.5677 38.963 24.562 39.1956C24.5563 39.4282 24.6402 39.654 24.7964 39.8264L31.2919 46.3219C28.4078 47.7108 25.5395 47.6859 23.113 46.2109ZM57.879 43.9C54.2427 46.1022 49.929 46.0727 45.6265 43.8434L58.7037 30.7639C58.8667 30.5927 58.9563 30.3646 58.9535 30.1283C58.9507 29.892 58.8556 29.6661 58.6887 29.4989C58.5217 29.3316 58.296 29.2362 58.0597 29.2329C57.8234 29.2297 57.5951 29.3189 57.4237 29.4816L44.3442 42.561C42.1148 38.2563 42.0786 33.9516 44.2876 30.3085C47.7109 24.6444 55.8604 21.5791 66.1803 22.0073C66.6108 32.3272 63.534 40.4766 57.879 43.9Z" fill="black"/>
<circle cx="41.75" cy="41" r="40" stroke="black" stroke-width="2"/>
</svg>
