<svg width="651" height="512" viewBox="0 0 651 512" fill="none" xmlns="http://www.w3.org/2000/svg">
<path d="M359.19 253.954C357.097 240.458 349.495 232.521 349.495 232.521C340.247 226.444 332.937 233.192 332.937 233.192C332.937 233.192 325.626 226.444 316.378 232.521C316.378 232.521 308.766 240.447 306.683 253.954C304.59 267.449 312.796 273.361 312.796 273.361H353.087C353.087 273.361 361.293 267.46 359.2 253.954H359.19Z" fill="#2B2B2B" stroke="#2B2B2B" stroke-linecap="round" stroke-linejoin="round"/>
<path d="M364.418 269.046C364.418 269.046 381.638 267.284 388.179 279.966C394.721 292.636 412.778 350.737 411.221 353.907C409.663 357.077 398.459 357.077 394.409 353.555C390.36 350.032 371.991 314.828 371.991 314.828L364.427 269.057L364.418 269.046Z" fill="white" stroke="#2B2B2B" stroke-linecap="round" stroke-linejoin="round"/>
<path d="M368.399 285.283C368.399 285.283 375.69 306.792 377.257 324.174L371.991 314.828L368.399 285.283Z" fill="#2B2B2B" stroke="#2B2B2B" stroke-linecap="round" stroke-linejoin="round"/>
<path d="M377.442 383.838C374.415 373.27 365.021 351.793 365.021 350.384C365.021 348.975 372.896 322.919 372.896 311.306C372.896 299.692 364.418 269.057 364.418 269.057C364.418 269.057 351.461 266.657 348.473 262.826C345.484 258.995 345.961 239.819 345.961 239.819L332.907 238.08L319.853 239.819C319.853 239.819 320.321 258.995 317.342 262.826C314.354 266.657 301.397 269.057 301.397 269.057C301.397 269.057 292.918 299.692 292.918 311.306C292.918 322.919 300.794 348.986 300.794 350.384C300.794 351.782 291.4 373.27 288.372 383.838C285.345 394.406 282.619 414.826 282.318 424.326L332.917 459.188L383.516 424.326C383.215 414.815 380.489 394.395 377.462 383.838H377.442Z" fill="white" stroke="#2B2B2B" stroke-linecap="round" stroke-linejoin="round"/>
<path d="M330.464 248.736L344.744 252.027L344.423 239.39L330.464 248.736Z" fill="#2B2B2B" stroke="#2B2B2B" stroke-linecap="round" stroke-linejoin="round"/>
<path d="M312.777 273.361C312.777 273.361 325.938 272.568 328.624 272.788" stroke="#2B2B2B" stroke-linecap="round" stroke-linejoin="round"/>
<path d="M353.067 273.361L339.205 272.425C339.205 272.425 335.682 273.152 335.682 275.683" stroke="#2B2B2B" stroke-linecap="round" stroke-linejoin="round"/>
<path d="M352.551 186.848C351.159 184.537 349.358 182.775 346.74 181.19C344.482 179.825 342.028 178.845 339.546 178.097C331.106 175.532 317.05 177.712 312.261 186.881C308.27 194.521 307.968 197.548 308.708 204.659C309.447 211.771 313.439 236.649 316.992 240.92C320.545 245.191 328.537 248.736 330.454 248.736H334.299C336.227 248.736 344.209 245.18 347.762 240.92C351.315 236.649 355.306 211.771 356.046 204.659C356.523 200.069 356.046 195.457 354.508 191.141C353.924 189.512 353.291 188.103 352.542 186.848H352.551Z" fill="white" stroke="#2B2B2B" stroke-linecap="round" stroke-linejoin="round"/>
<path d="M318.841 212.453C318.841 212.453 323.309 214.886 327.933 211.517" stroke="#2B2B2B" stroke-linecap="round" stroke-linejoin="round"/>
<path d="M328.926 201.412C328.926 201.412 321.479 196.734 317.352 204.219" stroke="#2B2B2B" stroke-width="2" stroke-linecap="round" stroke-linejoin="round"/>
<path d="M347.12 212.453C347.12 212.453 342.651 214.886 338.028 211.517" stroke="#2B2B2B" stroke-linecap="round" stroke-linejoin="round"/>
<path d="M337.025 201.412C337.025 201.412 344.472 196.734 348.599 204.219" stroke="#2B2B2B" stroke-width="2" stroke-linecap="round" stroke-linejoin="round"/>
<path d="M337.025 205.903C337.025 205.903 334.543 213.95 335.536 214.699C336.529 215.447 337.852 217.132 337.19 219.19C336.528 221.249 334.874 221.81 334.377 221.81" stroke="#2B2B2B" stroke-linecap="round" stroke-linejoin="round"/>
<path d="M335.049 231.156C335.049 232.191 334.416 233.027 333.647 233.027C332.878 233.027 332.245 232.191 332.245 231.156C332.245 230.121 332.878 229.284 333.647 229.284C334.416 229.284 335.049 230.121 335.049 231.156Z" fill="#2B2B2B"/>
<path d="M354.527 191.868C353.943 190.151 353.311 188.665 352.561 187.355C351.169 184.922 349.368 183.073 346.75 181.41C344.491 179.979 342.038 178.944 339.556 178.152C331.983 175.73 322.044 177.062 315.804 182.764C308.922 189.05 306.916 201.61 309.506 210.802C310.771 210.218 311.647 208.699 311.608 207.158C311.56 205.056 310.012 203.239 310.061 201.137C310.109 199.111 311.579 197.559 312.669 195.952C315.298 192.077 316.252 186.595 319.902 183.986C321.956 182.511 324.526 182.269 326.95 182.423C328.975 182.555 330.98 182.962 333.014 182.995C334.698 183.017 336.198 182.401 337.872 182.258C341.201 181.983 344.618 183.447 346.691 186.463C349.261 190.206 350.478 195.071 353.048 198.055C355.618 201.049 353.505 203.294 352.746 206.476C352.094 209.217 354.703 210.846 355.433 211.242C355.725 209.14 355.939 207.356 356.065 206.101C356.542 201.28 356.065 196.425 354.527 191.879V191.868Z" fill="#2B2B2B" stroke="#2B2B2B" stroke-linecap="round" stroke-linejoin="round"/>
<path d="M309.496 210.791C309.496 210.791 307.092 208.336 305.106 210.758C303.12 213.191 304.444 218.43 305.602 220.665C306.761 222.9 312.056 225.531 312.056 225.531L309.496 210.78V210.791Z" fill="white" stroke="#2B2B2B" stroke-linecap="round" stroke-linejoin="round"/>
<path d="M355.627 210.791C355.627 210.791 358.149 208.479 360.008 211.033C361.867 213.587 360.3 218.728 359.034 220.896C357.769 223.065 352.678 225.134 352.678 225.134L355.627 210.78V210.791Z" fill="white" stroke="#2B2B2B" stroke-linecap="round" stroke-linejoin="round"/>
<path d="M282.308 424.326L341.006 466.938L383.497 424.326C383.263 416.917 381.55 402.871 379.37 392.039C327.456 399.414 296.228 394.505 286.348 392.402C284.206 403.19 282.532 416.994 282.298 424.326H282.308Z" fill="#285E67" stroke="#285E67" stroke-linecap="round" stroke-linejoin="round"/>
<path d="M285.734 395.749C332.245 405.084 369.1 397.631 379.944 394.923C379.175 390.74 378.328 386.876 377.452 383.838C374.424 373.27 365.031 351.793 365.031 350.384C365.031 348.975 372.906 322.919 372.906 311.306C372.906 299.692 364.427 269.057 364.427 269.057C364.427 269.057 360.738 268.374 356.844 267.152C357.058 277.5 356.075 314.245 330.902 310.601C306.245 307.046 308.328 276.498 309.593 266.954C305.485 268.297 301.416 269.046 301.416 269.046C301.416 269.046 292.938 299.681 292.938 311.295C292.938 322.908 300.813 348.975 300.813 350.373C300.813 351.771 291.419 373.259 288.392 383.827C287.467 387.063 286.562 391.235 285.754 395.738L285.734 395.749Z" fill="#FCE2D7" stroke="#2B2B2B" stroke-linecap="round" stroke-linejoin="round"/>
<path d="M323.776 393.393C323.776 393.393 348.2 384.19 350.585 382.176C352.97 380.15 356.241 378.477 356.241 378.477L374.103 374.778L372.02 369.054C372.02 369.054 350.877 373.435 345.523 376.462C340.159 379.49 323.776 393.404 323.776 393.404V393.393Z" fill="#2B2B2B" stroke="#2B2B2B" stroke-linecap="round" stroke-linejoin="round"/>
<path d="M313.886 348.172L353.311 330.779" stroke="#2B2B2B" stroke-linecap="round" stroke-linejoin="round"/>
<path d="M350.429 337.296L336.967 342.734" stroke="#2B2B2B" stroke-linecap="round" stroke-linejoin="round"/>
<path d="M301.397 269.046C301.397 269.046 287.603 266.932 277.947 278.204C268.29 289.477 251.791 319.749 251.791 324.681C251.791 329.612 263.618 330.669 271.094 326.442C278.57 322.215 293.824 299.681 293.824 299.681L301.387 269.046H301.397Z" fill="white" stroke="#2B2B2B" stroke-linecap="round" stroke-linejoin="round"/>
<path d="M396.395 336.129C395.431 336.074 390.321 339.343 385.833 342.624C380.1 346.818 362.996 360.952 355.832 362.35C348.667 363.759 345.864 363.055 345.864 363.055C345.864 363.055 337.414 358.828 335.234 358.475C333.053 358.123 329.432 359.345 326.473 359.906C323.514 360.468 321.538 359.631 321.664 360.6C321.791 361.58 321.907 363.11 323.884 363.671C325.86 364.233 328.819 363.946 328.819 363.946C328.819 363.946 331.778 364.089 332.275 364.222C332.771 364.365 312.903 374.679 312.903 374.679C312.903 374.679 312.66 375.241 313.516 375.791C314.383 376.353 323.767 374.151 323.767 374.151L324.127 375.373C324.127 375.373 311.424 381.647 311.17 382.209C310.927 382.77 311.044 384.025 311.91 384.025C312.777 384.025 324.838 379.743 324.838 379.743L325.11 381.097C325.11 381.097 315.493 388.208 315.239 388.627C314.996 389.045 315.239 390.3 316.106 390.157C316.972 390.014 327.203 385.137 327.203 385.137L327.622 385.996C327.622 385.996 322.015 392.116 322.141 392.677C322.268 393.239 323.007 393.932 323.747 393.371C324.487 392.81 332.878 387.647 332.878 387.647C332.878 387.647 344.842 382.341 345.582 382.066C346.321 381.79 354.586 375.923 354.586 375.923C354.586 375.923 381.482 371.883 392.823 365.466C404.173 359.048 411.045 356.802 411.191 353.885C411.328 350.968 408.612 342.591 408.612 342.591" fill="white"/>
<path d="M396.395 336.129C395.431 336.074 390.321 339.343 385.833 342.624C380.1 346.818 362.996 360.952 355.832 362.35C348.667 363.759 345.864 363.055 345.864 363.055C345.864 363.055 337.414 358.828 335.234 358.475C333.053 358.123 329.432 359.345 326.473 359.906C323.514 360.468 321.538 359.631 321.664 360.6C321.791 361.58 321.907 363.11 323.884 363.671C325.86 364.233 328.819 363.946 328.819 363.946C328.819 363.946 331.778 364.089 332.275 364.222C332.771 364.365 312.903 374.679 312.903 374.679C312.903 374.679 312.66 375.241 313.516 375.791C314.383 376.353 323.767 374.151 323.767 374.151L324.127 375.373C324.127 375.373 311.424 381.647 311.17 382.209C310.927 382.77 311.044 384.025 311.91 384.025C312.777 384.025 324.838 379.743 324.838 379.743L325.11 381.097C325.11 381.097 315.493 388.208 315.239 388.627C314.996 389.045 315.239 390.3 316.106 390.157C316.972 390.014 327.203 385.137 327.203 385.137L327.622 385.996C327.622 385.996 322.015 392.116 322.141 392.677C322.268 393.239 323.007 393.932 323.747 393.371C324.487 392.81 332.878 387.647 332.878 387.647C332.878 387.647 344.842 382.341 345.582 382.066C346.321 381.79 354.586 375.923 354.586 375.923C354.586 375.923 381.482 371.883 392.823 365.466C404.173 359.048 411.045 356.802 411.191 353.885C411.328 350.968 408.612 342.591 408.612 342.591" stroke="#2B2B2B" stroke-linecap="round" stroke-linejoin="round"/>
<path d="M257.427 312.671C257.427 312.671 270.169 304.723 286.864 298.426C303.558 292.13 314.393 288.156 324.497 283.026C334.601 277.896 333.141 279.547 333.579 279.547C334.017 279.547 346.467 282.531 347.343 282.696C348.22 282.861 360.962 287.991 360.962 287.991C360.962 287.991 361.108 289.477 359.94 289.983L358.772 290.478C358.772 290.478 358.042 291.965 356.864 292.13C355.696 292.295 352.912 292.79 352.474 292.79C352.035 292.79 350.274 293.781 348.521 294.276C346.769 294.772 344.861 295.267 343.839 295.432C342.817 295.597 337.687 295.927 337.687 295.927C337.687 295.927 333.589 297.083 329.189 297.248C324.799 297.414 319.231 296.588 319.231 296.588C319.231 296.588 276.321 330.372 271.045 333.85C265.769 337.329 260.357 340.973 255.957 339.652C251.567 338.331 248.491 336.668 249.221 332.529C249.951 328.39 251.713 319.782 257.417 312.66L257.427 312.671Z" fill="white" stroke="#2B2B2B" stroke-linecap="round" stroke-linejoin="round"/>
<path d="M335.623 282.861C335.623 282.861 344.851 284.182 347.188 284.347C349.534 284.512 360.952 287.991 360.952 287.991" stroke="#2B2B2B" stroke-linecap="round" stroke-linejoin="round"/>
<path d="M336.363 287L350.127 287.671L358.762 290.479" stroke="#2B2B2B" stroke-linecap="round" stroke-linejoin="round"/>
<path d="M336.207 290.809L343.537 291.315L352.464 292.801" stroke="#2B2B2B" stroke-linecap="round" stroke-linejoin="round"/>
<path d="M353.973 450.008C353.973 450.008 367.533 428.399 380.304 418.524C393.076 408.65 419.68 400.317 441.582 410.191C463.485 420.066 479.391 444.14 481.211 447.542C483.031 450.932 481.474 458.957 478.865 462.975C476.256 466.993 469.744 471 466.346 471H307.306C307.306 471 306.527 467.609 309.136 464.824C311.745 462.05 327.125 456.183 330.26 454.334C333.384 452.484 337.035 441.366 343.041 439.209C349.047 437.051 353.992 450.008 353.992 450.008H353.973Z" fill="#285E67" stroke="#285E67" stroke-linecap="round" stroke-linejoin="round"/>
<path d="M452.105 471H307.734C307.734 471 306.955 467.609 309.545 464.824C312.124 462.05 327.359 456.183 330.464 454.334C333.559 452.484 337.181 441.366 343.119 439.209C349.057 437.051 353.963 450.007 353.963 450.007C353.963 450.007 355.511 452.473 358.1 454.191C360.68 455.908 364.992 457.79 365.848 457.79C366.705 457.79 385.23 455.049 394.701 449.897C404.173 444.757 417.811 434.464 428.859 433.088C439.908 431.712 448.951 437.888 454.548 442.346" fill="#285E67"/>
<path d="M452.105 471H307.734C307.734 471 306.955 467.609 309.545 464.824C312.124 462.05 327.359 456.183 330.464 454.334C333.559 452.484 337.181 441.366 343.119 439.209C349.057 437.051 353.963 450.007 353.963 450.007C353.963 450.007 355.511 452.473 358.1 454.191C360.68 455.908 364.992 457.79 365.848 457.79C366.705 457.79 385.23 455.049 394.701 449.897C404.173 444.757 417.811 434.464 428.859 433.088C439.908 431.712 448.951 437.888 454.548 442.346" stroke="#285E67" stroke-linecap="round" stroke-linejoin="round"/>
<path d="M458.851 447.498C458.851 447.498 454.402 453.156 450.1 454.014C445.797 454.873 430.29 452.132 425.121 450.756" stroke="white" stroke-linecap="round" stroke-linejoin="round"/>
<path d="M365.839 457.79C366.695 457.79 385.22 455.049 394.692 449.897C404.163 444.757 417.801 434.464 428.85 433.088C439.898 431.712 448.941 437.888 454.539 442.346" stroke="white" stroke-linecap="round" stroke-linejoin="round"/>
<path d="M365.527 457.746L364.31 471H307.734C307.734 471 306.955 467.609 309.545 464.824C312.124 462.05 327.359 456.183 330.464 454.334C333.559 452.484 337.181 441.366 343.119 439.209C349.057 437.051 353.963 450.007 353.963 450.007C353.963 450.007 355.511 452.473 358.1 454.191C360.456 455.754 364.233 457.46 365.537 457.746H365.527Z" fill="white" stroke="#285E67" stroke-linecap="round" stroke-linejoin="round"/>
<path d="M325.022 450.008C325.022 450.008 310.83 428.399 297.455 418.524C284.08 408.65 256.239 400.317 233.315 410.191C210.39 420.066 193.744 444.14 191.827 447.542C189.919 450.932 191.554 458.957 194.28 462.975C197.005 466.982 203.829 471 207.382 471H373.87C373.87 471 374.687 467.609 371.962 464.824C369.236 462.05 353.126 456.183 349.855 454.334C346.584 452.484 342.759 441.366 336.48 439.209C330.201 437.051 325.013 450.008 325.013 450.008H325.022Z" fill="#285E67" stroke="#285E67" stroke-linecap="round" stroke-linejoin="round"/>
<path d="M221.293 471H373.87C373.87 471 374.687 467.609 371.962 464.824C369.236 462.05 353.126 456.183 349.855 454.334C346.584 452.484 342.758 441.366 336.48 439.209C330.201 437.051 325.013 450.007 325.013 450.007C325.013 450.007 323.377 452.473 320.642 454.191C317.907 455.908 313.361 457.79 312.455 457.79C311.55 457.79 291.974 455.049 281.967 449.897C271.95 444.757 257.544 434.464 245.862 433.088C234.181 431.712 224.622 437.888 218.713 442.346" fill="#285E67"/>
<path d="M221.293 471H373.87C373.87 471 374.687 467.609 371.962 464.824C369.236 462.05 353.126 456.183 349.855 454.334C346.584 452.484 342.758 441.366 336.48 439.209C330.201 437.051 325.013 450.007 325.013 450.007C325.013 450.007 323.377 452.473 320.642 454.191C317.907 455.908 313.361 457.79 312.455 457.79C311.55 457.79 291.974 455.049 281.967 449.897C271.95 444.757 257.544 434.464 245.862 433.088C234.181 431.712 224.622 437.888 218.713 442.346" stroke="#285E67" stroke-linecap="round" stroke-linejoin="round"/>
<path d="M214.167 447.498C214.167 447.498 218.869 453.156 223.425 454.014C227.971 454.873 244.353 452.132 249.814 450.756" stroke="white" stroke-linecap="round" stroke-linejoin="round"/>
<path d="M312.455 457.79C311.55 457.79 291.974 455.049 281.967 449.897C271.95 444.757 257.544 434.464 245.862 433.088C234.181 431.712 224.622 437.888 218.713 442.346" stroke="white" stroke-linecap="round" stroke-linejoin="round"/>
<path d="M312.786 457.746L314.071 471H373.86C373.86 471 374.678 467.609 371.952 464.824C369.226 462.05 353.116 456.183 349.845 454.334C346.574 452.484 342.749 441.366 336.47 439.209C330.191 437.051 325.003 450.007 325.003 450.007C325.003 450.007 323.368 452.473 320.632 454.191C318.14 455.754 314.149 457.46 312.767 457.746H312.786Z" fill="white" stroke="#285E67" stroke-linecap="round" stroke-linejoin="round"/>
<path d="M286.28 413.549C286.28 413.549 305.583 419.68 322.287 438.075" stroke="white" stroke-linecap="round" stroke-linejoin="round"/>
<path d="M380.314 418.524C380.314 418.524 363.493 426.296 349.397 437.579" stroke="white" stroke-linecap="round" stroke-linejoin="round"/>
</svg>
