<svg width="22" height="23" viewBox="0 0 22 23" fill="none" xmlns="http://www.w3.org/2000/svg">
<g clip-path="url(#clip0_184_145)">
<path d="M21.2344 2.70001L21.9677 2.65161C21.9582 2.50764 21.9064 2.36968 21.8189 2.255C21.7313 2.14031 21.6119 2.05401 21.4755 2.00688C21.3391 1.95975 21.1919 1.9539 21.0522 1.99006C20.9125 2.02621 20.7866 2.10277 20.6903 2.21014L21.2344 2.70001ZM20.504 7.03988C20.504 6.84538 20.4267 6.65886 20.2892 6.52133C20.1517 6.3838 19.9651 6.30654 19.7707 6.30654C19.5762 6.30654 19.3896 6.3838 19.2521 6.52133C19.1146 6.65886 19.0373 6.84538 19.0373 7.03988H20.504ZM0.733317 18.8333V18.1C0.575854 18.0998 0.422511 18.1503 0.295972 18.244C0.169433 18.3377 0.0764194 18.4697 0.0306902 18.6204C-0.015039 18.771 -0.0110547 18.9324 0.0420538 19.0807C0.0951623 19.2289 0.194574 19.3561 0.325583 19.4435L0.733317 18.8333ZM2.19705 2.70001L2.88492 2.44334C2.83493 2.30945 2.74691 2.19308 2.63167 2.10854C2.51643 2.024 2.379 1.97498 2.23627 1.9675C2.09355 1.96002 1.95175 1.99441 1.8283 2.06644C1.70486 2.13847 1.60516 2.245 1.54145 2.37294L2.19705 2.70001ZM8.05492 15.9L8.57412 16.4177C8.6622 16.3294 8.72629 16.22 8.7603 16.0999C8.79432 15.9799 8.79715 15.8532 8.76851 15.7317C8.73988 15.6103 8.68073 15.4982 8.59667 15.4059C8.5126 15.3137 8.4064 15.2445 8.28812 15.2048L8.05492 15.9ZM18.6501 4.12707L18.1075 4.61987L18.3715 4.91174L18.7601 4.85307L18.6501 4.12707ZM20.504 2.74841C20.5788 3.88947 20.5084 4.58174 20.3236 5.10387C20.1447 5.60987 19.8308 6.02641 19.2632 6.57054L20.2781 7.62948C20.9205 7.01347 21.4163 6.40921 21.7067 5.59374C21.9897 4.79294 22.0484 3.86601 21.9677 2.65161L20.504 2.74841ZM20.504 8.10761V7.03988H19.0373V8.10908H20.504V8.10761ZM10.252 7.16014V8.56668H11.7186V7.16014H10.252ZM10.252 8.56668V9.30001H11.7186V8.56668H10.252ZM15.4367 1.96667C14.755 1.96706 14.0801 2.1017 13.4505 2.3629C12.8209 2.62411 12.249 3.00676 11.7672 3.48902C11.2855 3.97128 10.9035 4.5437 10.643 5.17359C10.3825 5.80348 10.2487 6.47851 10.2491 7.16014H11.7157C11.7153 6.67099 11.8113 6.18656 11.9982 5.73452C12.1851 5.28247 12.4592 4.87168 12.8049 4.52559C13.1505 4.17951 13.561 3.90492 14.0128 3.71751C14.4647 3.53009 14.949 3.43353 15.4381 3.43334V1.96667H15.4367ZM19.0359 8.10761C19.0373 14.4377 13.9143 19.5667 7.59732 19.5667V21.0333C14.7253 21.0333 20.504 15.2459 20.504 8.10761H19.0359ZM1.51065 2.95667C2.30852 5.08627 5.30052 9.30001 10.9853 9.30001V7.83334C6.12185 7.83334 3.55078 4.22534 2.88345 2.44334L1.51065 2.95667ZM1.54145 2.37294C0.00584974 5.44707 -0.230283 8.43027 0.88585 10.9705C1.99905 13.5035 4.39412 15.4512 7.82318 16.5952L8.28812 15.2048C5.12745 14.1488 3.12838 12.4299 2.22785 10.3795C1.33025 8.33641 1.46078 5.81814 2.85412 3.02707L1.54145 2.37294ZM7.53572 15.3823C6.65278 16.2667 3.99812 18.1 0.733317 18.1V19.5667C4.49678 19.5667 7.50492 17.4899 8.57412 16.4177L7.53572 15.3823ZM19.1943 3.63574C18.7201 3.10987 18.1407 2.68954 17.4936 2.40201C16.8465 2.11447 16.1462 1.96616 15.4381 1.96667V3.43334C16.4956 3.43334 17.4475 3.88947 18.1075 4.61987L19.1943 3.63574ZM18.7601 4.85307C19.9284 4.66221 20.9953 4.07489 21.7815 3.18987L20.6903 2.21014C20.1311 2.84189 19.3721 3.26277 18.5401 3.40254L18.7601 4.85307ZM0.325583 19.4435C2.73238 21.048 5.25505 21.0333 7.59732 21.0333V19.5667C5.20665 19.5667 3.12692 19.5505 1.14105 18.2232L0.325583 19.4435Z" fill="white"/>
</g>
<defs>
<clipPath id="clip0_184_145">
<rect width="22" height="22" fill="white" transform="translate(0 0.5)"/>
</clipPath>
</defs>
</svg>
