<svg width="26" height="30" viewBox="0 0 26 30" fill="none" xmlns="http://www.w3.org/2000/svg">
<path d="M25.7815 28.3108L24.2918 26.6489C24.3925 24.439 24.5588 13.6088 18.6657 7.03402C13.5663 1.34512 5.48153 0.730957 2.24217 0.730957C1.31494 0.730957 0.757702 0.780056 0.734577 0.782137C0.3698 0.815009 0.079992 1.1379 0.0508994 1.54485C0.0136011 2.06455 -0.792041 14.3569 5.65496 21.5488C10.7544 27.2377 18.8399 27.8514 22.0793 27.8514C22.5858 27.8514 22.9766 27.8369 23.2359 27.8236L24.7271 29.4871C24.8725 29.6498 25.0635 29.731 25.2545 29.731C25.4454 29.731 25.6364 29.6498 25.7819 29.4871C26.0728 29.1622 26.0728 28.6358 25.7815 28.3108ZM6.70938 20.3721C1.60847 14.6815 1.44548 5.10915 1.50889 2.407C1.71254 2.40034 1.95908 2.39577 2.24217 2.39577C5.29578 2.39577 12.9057 2.96249 17.6109 8.21116C22.133 13.2559 22.7737 21.3491 22.817 25.0032L17.3129 18.8633L18.0059 12.2369C18.0537 11.7805 17.7605 11.3673 17.3517 11.314C16.9392 11.2616 16.5722 11.5878 16.5244 12.0438L15.9683 17.3628L12.2001 13.1594L11.6175 8.24029C11.5634 7.78466 11.1867 7.4626 10.7801 7.52418C10.3717 7.58452 10.0841 8.0027 10.1382 8.45833L10.4657 11.225L6.0962 6.34995C5.80528 6.02498 5.33233 6.02498 5.04141 6.34995C4.75011 6.67493 4.75011 7.20171 5.04141 7.52668L9.41053 12.4009L6.93131 12.0355C6.52289 11.9756 6.14767 12.296 6.09396 12.7516C6.03988 13.2073 6.32745 13.6254 6.73587 13.6858L11.1445 14.3357L14.9128 18.5391L10.1453 19.1596C9.73614 19.2128 9.44335 19.626 9.49109 20.0825C9.53547 20.5065 9.85773 20.8185 10.2311 20.8185C10.2598 20.8185 10.2889 20.8169 10.3184 20.8127L16.2577 20.04L21.7667 26.1858C18.5337 26.1454 11.2616 25.4506 6.70938 20.3721Z" fill="white"/>
</svg>
