<svg width="45" height="49" viewBox="0 0 45 49" fill="none" xmlns="http://www.w3.org/2000/svg">
<path d="M44.5723 46.2097L42.0513 43.4652C42.2217 39.8158 42.5033 21.9307 32.5303 11.0731C23.9005 1.67847 10.2186 0.664246 4.73659 0.664246C3.16742 0.664246 2.2244 0.745328 2.18527 0.748764C1.56795 0.803049 1.07751 1.33627 1.02828 2.0083C0.965156 2.86655 -0.398239 23.1662 10.5121 35.0429C19.1419 44.4376 32.825 45.4511 38.307 45.4511C39.1642 45.4511 39.8257 45.427 40.2644 45.4051L42.7879 48.1523C43.0341 48.4209 43.3573 48.5549 43.6804 48.5549C44.0036 48.5549 44.3268 48.4209 44.573 48.1523C45.0653 47.6156 45.0653 46.7464 44.5723 46.2097ZM12.2965 33.0996C3.66417 23.7022 3.38834 7.8944 3.49564 3.43207C3.84028 3.42108 4.2575 3.41352 4.73659 3.41352C9.90423 3.41352 22.7826 4.34941 30.7452 13.0171C38.3979 21.348 39.4823 34.7131 39.5555 40.7476L30.2409 30.608L31.4137 19.6652C31.4945 18.9114 30.9983 18.2291 30.3066 18.1411C29.6084 18.0546 28.9873 18.5933 28.9065 19.3464L27.9654 28.1302L21.5884 21.1886L20.6025 13.0652C20.5109 12.3128 19.8734 11.7809 19.1854 11.8826C18.4942 11.9822 18.0076 12.6728 18.0991 13.4252L18.6533 17.9941L11.2588 9.94347C10.7665 9.40681 9.96609 9.40681 9.47375 9.94347C8.98078 10.4801 8.98078 11.3501 9.47375 11.8867L16.8676 19.936L12.672 19.3326C11.9809 19.2337 11.3459 19.7628 11.255 20.5152C11.1635 21.2677 11.6501 21.9582 12.3413 22.0579L19.8021 23.1312L26.1791 30.0727L18.1111 31.0973C17.4187 31.1852 16.9232 31.8676 17.004 32.6214C17.0791 33.3216 17.6245 33.8369 18.2563 33.8369C18.3049 33.8369 18.3541 33.8342 18.404 33.8273L28.4552 32.5513L37.7781 42.7004C32.3068 42.6338 20.0003 41.4863 12.2965 33.0996Z" fill="white"/>
</svg>
